<svg version="1.1" xmlns="http://www.w3.org/2000/svg" viewBox="0 0 441.52900941276755 196.10457597921913" width="441.52900941276755" height="196.10457597921913">
  <!-- svg-source:excalidraw -->
  <!-- payload-type:application/vnd.excalidraw+json --><!-- payload-version:2 --><!-- payload-start -->eyJ2ZXJzaW9uIjoiMSIsImVuY29kaW5nIjoiYnN0cmluZyIsImNvbXByZXNzZWQiOnRydWUsImVuY29kZWQiOiJ4nO2Z3XPaOFx1MDAxMMDf81dk6GtR9f3RmZtcdTAwMWJI02sumaQpaZrmppNxsFx1MDAwMV/Adm1cdTAwMTNIO/3fb2XAXHUwMDAyXHUwMDAzQ1x1MDAxZciUm0FcdTAwMGaAV7K00u5vtVx1MDAxMj9cdTAwMGZcdTAwMGVcdTAwMGZr+VNcdTAwMTLU3lx1MDAxZdaCcdvrh37qjWqvrfwxSLMwjqCKXHUwMDE2z1k8TNtFy16eJ9nbN29cdTAwMDZe+lx1MDAxMORJ32tcdTAwMDfoMcyGXj/Lh35cdTAwMTijdjx4XHUwMDEz5sEg+9N+nnuD4I8kXHUwMDFl+HmK3CD1wFx1MDAwZvM4nYxcdTAwMTX0g0FcdTAwMTDlXHUwMDE59P5cdTAwMGY8XHUwMDFmXHUwMDFl/iw+57Trh1FQtC2kTjdcIk1Velx1MDAxZUeFnlpcbqGUNKxsXHUwMDEwZu9gpDzwobZcdTAwMDPaXHUwMDA2rsaKaorceI3QqHrw6fy0+SH6UL+jXHI3aifs91v5U3+yXGJeuzdM53TK8jR+XGK+hH7em63ZnLx8L4th/u6tNFx1MDAxZXZ7UZDZqZNSXHUwMDFhJ147zJ+sXGbjUupF3aJcdTAwMGYnXHUwMDE5w5PiXHUwMDA0cYKJkFSUXHUwMDE19lWqXHUwMDA1olhhRuYqJtpcdTAwMWPFfVh60OZcdTAwMTUuitPn3ms/dEGpyC/b5KlcdTAwMTdliZeCgVxcu9F0noxcIs5cZlZcdTAwMDRcdTAwMTabKsZ52aJcdTAwMTeE3V5up0AkwkRcdTAwMTFNmJFcXHOmnTZBYVx1MDAwYqK4XCLwMnZ6Wlx1MDAxZJJcdTAwMTO/8Ihv86tcdTAwMTX509WauYhzXHUwMDEyOpX8crOx7Y/nnMt1NUx8b+JcdERqSbk2WmDj1Fx1MDAwN4d7gMpo2O87Wdx+WOE8We6leTOM/DDqVl9cdFwif01N38vyo3gwXGJzUONjXHUwMDFjRnm1RdFvI03jUS/w/Fx1MDAxNT2vrUtsd44mW9yvQ+dAxUP5+9vrla3XmtiWZeO67lx1MDAwZea/p0Z5PtiMVaUl2EJcdTAwMWLJXHUwMDE4cd6yXHTsi/HtXHUwMDE5XHUwMDBi2M3opnnWelx1MDAxY50mnz/Uh/9cdTAwMDewXHSjmqzgWrwo1IpcImJtqtxcdTAwMTAlzcIgbL2AzVWWXHUwMDE4S6lBMepC8lx1MDAxZeOdwXjZqLbMmXNb4FJelc7AJUJcdTAwMTCmJZ9zkE3kPo1uz/P4/rJ31Ty7b3t39dOb62DXyVx1MDAwNWSRrFx1MDAwMGTfZFx1MDAxY4KlwEq/6I6skFx1MDAxNHRcdTAwMTFQRy9HspIqzOBcdTAwMTWKKlx1MDAwZcmC2sO7e/DWV1jVXHUwMDE2Z88t0cu5qEpn9EIuSTFcdTAwMThJOCg20fs4vmh8NF/FydXx0Y9ma9h5XHUwMDE3N9o7SC9QKSGB4ZCIamaU1i5FnfDMkVx1MDAwNmyl0JhcboKdLlx1MDAwNdVcdTAwMDIjXHUwMDBlNZhcdTAwMTmmhTKqoun20KaQbFEusWGKXHUwMDFiW9xQLttcdTAwMTbIKCEkx/b4Y/Wtks5hXHUwMDFlcCrAbnX2oO9cZuhcdTAwMDQ2ZEWwJlJKgsGZ9PzrddhYwEep4JxcdK1cZlx1MDAxNpv6W+8ytjBwa8KwkdRIo63fbCtcdNBifVx1MDAxNqDt9LCUz89cdTAwMDI6487nLzej47uHsHU5bl3mgqRXO1x1MDAxOEdcdTAwMTaihtFcbsGWSqQxdDlcdTAwMTVgXHUwMDFhwVx1MDAxOcYozFx1MDAxOZNcdTAwMTBcXOSLRVxyouw9gKGUc8PhkO1m44JcdTAwMDYkh4WXQLzgnEKpXHUwMDA2XHKqJCOA7m9cdTAwMGZcdTAwMWFuXHUwMDE590FjVqRCcCZcdTAwMDZH05pjXHUwMDAxIWQhZlxie4xkTGFpwLZYbVx1MDAwZVx1MDAxYZDCI0jShVx1MDAwMu+EzZCrhVx1MDAwZTVBYFx1MDAwZY2hL1x1MDAwNnVabuxunVx1MDAwM07GXHUwMDAy9VxiheSTMXBzXCLYlkKQWZvIXHUwMDEwwYXi4NDPv0BcYlx1MDAxYZ/6x7cyXHRcdTAwMWb//qt7dXJ82jzCn3Y9XHUwMDAwgXGQqlx1MDAxY9Vnx5CloLT1qCOQtElcYl1xXG5hXGZcdKB51Vx1MDAxZFx1MDAwMviUsElcdTAwMTj/7XdcYvtAs9y6vmxVW+bsuSV41drsgUuuINGmz2e3+/2CN07eX1x1MDAxZV9n77u37+K78/dcdTAwMTdPO8+uwogxYVaxXHUwMDBiydqLkksq14slt5QhJlx1MDAxN681ZrdcdTAwMDfGYKw50Xtsd1x1MDAxMtuKSW1xxtxcdTAwMTKzmlSF5YU9UZBKYOmOq5uYZfLpUo2VOjq5//e68/VscO1lvV1n1mBcdTAwMDLM0sU/3CbQMkRcdTAwMTb3wm1Da5DUcFx1MDAxY5TTf2FW3f1cdTAwMTGFhD34KyaYWH1cdTAwMDdIJWy/dE/xblK81sa2LFt3XHUwMDFk1lx1MDAwN9NcdTAwMTFqXpK0clj80ohg7dBvhT+ChXnUXHUwMDFlw2DUXFz2x1edotRcdTAwMGWmlrZUXHUwMDA2hUf8Ovj1XHUwMDFmy1K/MiJ9<!-- payload-end -->
  <defs>
    <style class="style-fonts">
      @font-face {
        font-family: "Virgil";
        src: url("https://file%2B.vscode-resource.vscode-cdn.net/Users/master/.vscode/extensions/pomdtr.excalidraw-editor-3.5.1/public//dist/excalidraw-assets/Virgil.woff2");
      }
      @font-face {
        font-family: "Cascadia";
        src: url("https://file%2B.vscode-resource.vscode-cdn.net/Users/master/.vscode/extensions/pomdtr.excalidraw-editor-3.5.1/public//dist/excalidraw-assets/Cascadia.woff2");
      }
    </style>
  </defs>
  <g stroke-linecap="round"><g transform="translate(10.656546065975022 11.486217809673747) rotate(0 16.21953582763672 58.00859069824219)"><path d="M0.53 0.56 C5.97 19.66, 28.38 96.27, 33.53 115.36 M-0.66 -0.2 C4.66 18.98, 27.41 97.19, 33.16 116.55" stroke="#000000" stroke-width="2" fill="none"></path></g></g><mask></mask><g stroke-linecap="round"><g transform="translate(10.379202315975022 11.810436559673747) rotate(0 36.05859375 29.513671875)"><path d="M1.09 -0.66 C12.87 8.94, 59.48 48.01, 71.15 58.14 M0.21 1.61 C12.3 11.29, 61.14 49.75, 73.35 59.21" stroke="#000000" stroke-width="2" fill="none"></path></g></g><mask></mask><g stroke-linecap="round"><g transform="translate(81.86357731597502 72.32996780967375) rotate(0 -18.826171875 27.30078125)"><path d="M-0.97 -0.89 C-7.6 8.5, -32.53 46.26, -38.68 55.68 M0.72 1.26 C-5.64 10.39, -29.93 45.36, -36.51 54.12" stroke="#000000" stroke-width="2" fill="none"></path></g></g><mask></mask><g stroke-linecap="round"><g transform="translate(84.05425561848517 76.73719049825343) rotate(3.216551686154933 108.123046875 -4.18647240309005)"><path d="M-1.03 1.08 C25.72 -0.63, 123.12 -11.64, 159.52 -11.15 C195.93 -10.66, 208.11 1.41, 217.41 4.01 M0.64 0.59 C27.29 -1.35, 122.37 -13.54, 158.47 -12.74 C194.58 -11.93, 207.82 2.94, 217.26 5.44" stroke="#000000" stroke-width="2" fill="none"></path></g></g><mask></mask><g stroke-linecap="round"><g transform="translate(256.52055973785 64.9131569933545) rotate(0 87.60461224717005 34.98967831779041)"><path d="M-0.19 1.02 C11.49 -7.64, 48.41 -64.51, 69.02 -50.92 C89.64 -37.34, 105.86 53.97, 123.51 82.53 C141.16 111.09, 166.2 113.99, 174.92 120.44 M-1.75 0.52 C9.96 -8.02, 47.41 -66.27, 68.69 -52.94 C89.96 -39.6, 108.2 51.51, 125.92 80.53 C143.64 109.56, 166.89 114.33, 175.01 121.19" stroke="#000000" stroke-width="2" fill="none"></path></g></g><mask></mask><g stroke-linecap="round"><g transform="translate(117.01982731597502 72.97840530967375) rotate(0 -7.83203125 16.794921875)"><path d="M1.16 0.21 C-1.57 5.75, -13.73 28.8, -16.59 34.26 M0.32 -0.73 C-2.03 4.98, -11.49 26.71, -14.36 32.48" stroke="#000000" stroke-width="2" fill="none"></path></g></g><mask></mask><g stroke-linecap="round"><g transform="translate(139.58232731597502 72.57606155967375) rotate(0 -5.765625 11.68359375)"><path d="M-0.92 0.67 C-3.09 4.41, -10.16 18.89, -11.82 22.69 M0.79 -0.03 C-1.66 3.84, -10.9 19.73, -12.93 23.88" stroke="#000000" stroke-width="2" fill="none"></path></g></g><mask></mask><g stroke-linecap="round"><g transform="translate(170.57842106597502 69.41981155967375) rotate(0 -4.8445281982421875 8.778518676757812)"><path d="M-0.29 -0.67 C-1.65 2.17, -7.46 14.5, -9.09 17.7 M1.75 1.59 C0.37 4.59, -7.58 16.79, -9.72 19.31" stroke="#000000" stroke-width="2" fill="none"></path></g></g><mask></mask></svg>